<?xml version="1.0" encoding="UTF-8" standalone="no"?>
<svg xmlns:dc="http://purl.org/dc/elements/1.1/" xmlns:cc="http://creativecommons.org/ns#" xmlns:rdf="http://www.w3.org/1999/02/22-rdf-syntax-ns#" xmlns:svg="http://www.w3.org/2000/svg" xmlns="http://www.w3.org/2000/svg" xmlns:sodipodi="http://sodipodi.sourceforge.net/DTD/sodipodi-0.dtd" xmlns:inkscape="http://www.inkscape.org/namespaces/inkscape" width="1024" height="1024" viewBox="0 0 1024 1024" version="1.1" id="SVGRoot" sodipodi:docname="brasved.svg" inkscape:version="1.0.1 (3bc2e813f5, 2020-09-07)" inkscape:export-filename="D:\Windows 10\Nedladdningar\brasved.png" inkscape:export-xdpi="3" inkscape:export-ydpi="3">
  <defs id="defs833"/>
  <sodipodi:namedview id="base" pagecolor="#505050" bordercolor="#666666" borderopacity="1.0" inkscape:pageopacity="1" inkscape:pageshadow="2" inkscape:zoom="0.80761719" inkscape:cx="512" inkscape:cy="512" inkscape:document-units="px" inkscape:current-layer="layer2" inkscape:document-rotation="0" showgrid="true" inkscape:window-width="1920" inkscape:window-height="1017" inkscape:window-x="-8" inkscape:window-y="-8" inkscape:window-maximized="1" scale-x="1" showguides="true">
    <inkscape:grid type="xygrid" id="grid1403" originx="512" originy="512" spacingx="1" empspacing="16"/>
  </sodipodi:namedview>
  <metadata id="metadata836">
    <rdf:RDF>
      <cc:Work rdf:about="">
        <dc:format>image/svg+xml</dc:format>
        <dc:type rdf:resource="http://purl.org/dc/dcmitype/StillImage"/>
        <dc:title/>
      </cc:Work>
    </rdf:RDF>
  </metadata>
  <g inkscape:label="Lager 1" inkscape:groupmode="layer" id="layer1">
    <circle style="fill:#000000;fill-opacity:0.973404;stroke:none;stroke-width:18.607;stroke-linecap:round;stroke-linejoin:round;stroke-opacity:1" id="path1410" cy="512" cx="512" r="512"/>
    <circle style="fill:#000000;fill-opacity:0.973404;stroke:#ffffff;stroke-width:36.7236;stroke-linecap:round;stroke-linejoin:round;stroke-miterlimit:4;stroke-dasharray:none;stroke-opacity:1" id="circle1552" r="457.92932" cy="512" cx="512"/>
  </g>
  <g inkscape:groupmode="layer" id="layer2" inkscape:label="AXES">
    <g id="g1419" transform="matrix(-0.94148015,0,0,0.94148015,994.03788,116.79543)" style="fill:#ffffff;fill-opacity:1;stroke:none">
      <path style="fill:#ffffff;fill-opacity:1;stroke:none;stroke-width:1.23443px;stroke-linecap:butt;stroke-linejoin:miter;stroke-opacity:1" d="m 320,672 c 10.58119,44.09376 21.24541,54.01314 32,48 48,-64 234.66667,-300.60606 352,-448 13.81189,-22.38893 -6.04984,-45.96893 -33.52381,-69.81818 C 553.56019,353.44284 432,528 320,672 Z" id="path1412" sodipodi:nodetypes="ccccc"/>
      <path style="fill:#ffffff;fill-opacity:1;stroke:none;stroke-width:1.04675px;stroke-linecap:butt;stroke-linejoin:miter;stroke-opacity:1" d="M 561.52381,301.47368 672.55412,160 c 66.81653,48.08009 121.66457,107.4861 222.0606,123.78947 C 896,368 880,432 736,496 704,400 621.16294,364.31901 561.52381,301.47368 Z" id="path1414" sodipodi:nodetypes="ccccc"/>
    </g>
    <g id="g1446" transform="matrix(0.94148015,0,0,0.94148015,29.962164,116.79543)" style="fill:#ffffff;fill-opacity:1;stroke:none">
      <path style="fill:#ffffff;fill-opacity:1;stroke:none;stroke-width:1.23443px;stroke-linecap:butt;stroke-linejoin:miter;stroke-opacity:1" d="m 320,672 c 10.58119,44.09376 21.24541,54.01314 32,48 64,-80 234.66667,-300.60606 352,-448 13.81189,-22.38893 -6.04984,-45.96893 -33.52381,-69.81818 C 553.56019,353.44284 432,528 320,672 Z" id="path1442" sodipodi:nodetypes="ccccc"/>
      <path style="fill:#ffffff;fill-opacity:1;stroke:none;stroke-width:1.04675px;stroke-linecap:butt;stroke-linejoin:miter;stroke-opacity:1" d="M 561.52381,301.47368 672.55412,160 c 66.81653,48.08009 121.66457,107.4861 222.0606,123.78947 C 896,368 880,432 736,496 704,400 621.16294,364.31901 561.52381,301.47368 Z" id="path1444" sodipodi:nodetypes="ccccc" inkscape:export-filename="D:\Windows 10\Nedladdningar\path1444.png" inkscape:export-xdpi="96" inkscape:export-ydpi="96"/>
    </g>
  </g>
</svg>